# xmcd
#
# Track frame offsets:
#	182
#	12320
#	23570
#	37020
#	48492
#	62237
#	74832
#	89102
#	103825
#	119832
#	133445
#	147357
#	161675
#	175210
#	188222
#	203410
#	215975
#	229532
#	243895
#	257512
#	270682
#	283190
#	296350
#	311165
#
# Disc length: 4320 seconds
#
# Revision: 1
# Processed by: cddbd v1.5.1PL0 Copyright (c) Steve Scherf et al.
# Submitted via: EasyCDDAExtractor 6.2.0.3
#
DISCID=8310de18
DTITLE=Various Artist - Birth Of The Blues
DYEAR=1999
DGENRE=Blues
TTITLE0=Robert Johnson - Crossroad Blues
TTITLE1=Blind Willie McTell - Stateboro Blues
TTITLE2=Bessie Smith - Nobody Knows When Your Down and Out
TTITLE3=Leadbelly - Rock Island Line
TTITLE4=Big Bill Broonzy - Key's To The Highway
TTITLE5=Champion Jack Dupree - Gamblin Man's Blues
TTITLE6=Memphis Minnie - When The Levee Breaks
TTITLE7=Barbecue Bob - Motherless Chile Blues
TTITLE8=Maxine Sullivan - It Ain't Necessarily So
TTITLE9=Robert Johnson - Sweet Home Chicago
TTITLE10=Blind Boy Fuller - Evil Hearted Woman
TTITLE11=Blind Willie Johnson - Nobody's Fault But Mine
TTITLE12=Sonny Boy Williamson - Good Morning Little Schoolgirl
TTITLE13=Billie Holiday - St Louis Blues
TTITLE14=Mildred Bailey - Georgia On My Mind
TTITLE15=Brownie McGee and Washboard Sam - Key To My Door
TTITLE16=Big Joe Turner - Going To Chicago Blues
TTITLE17=Ethel Waters - Sweet Georgia Brown
TTITLE18=Arthur 'Big Boy' Crudup - I'm In The Mood
TTITLE19=Blind Lemon Jefferson - [See See Rider] Easy Rider Blues
TTITLE20=Lonnie Johnson - Mr Johnson's Swing
TTITLE21=Leroy Carr - Mean Mistreater Mama
TTITLE22=Bo Carter - Cigarette Blues
TTITLE23=Robert Johnson - Rambling On My Mind
EXTD=
EXTT0=
EXTT1=
EXTT2=
EXTT3=
EXTT4=
EXTT5=
EXTT6=
EXTT7=
EXTT8=
EXTT9=
EXTT10=
EXTT11=
EXTT12=
EXTT13=
EXTT14=
EXTT15=
EXTT16=
EXTT17=
EXTT18=
EXTT19=
EXTT20=
EXTT21=
EXTT22=
EXTT23=
PLAYORDER=
